<svg width="40" height="40" viewBox="0 0 40 40" xmlns="http://www.w3.org/2000/svg">
<g clip-path="url(#clip0_182_122)">
<path d="M20.0033 14.8652C17.1674 14.8652 14.8716 17.1636 14.8716 19.9969C14.8716 22.8327 17.1699 25.1286 20.0033 25.1286C22.8391 25.1286 25.1349 22.8302 25.1349 19.9969C25.1349 17.1611 22.8366 14.8652 20.0033 14.8652ZM20.0033 23.3277C18.1624 23.3277 16.6724 21.8369 16.6724 19.9969C16.6724 18.1569 18.1633 16.6661 20.0033 16.6661C21.8433 16.6661 23.3341 18.1569 23.3341 19.9969C23.3349 21.8369 21.8441 23.3277 20.0033 23.3277Z"/>
<path d="M24.1233 10.0638C22.2833 9.97797 17.7258 9.98213 15.8841 10.0638C14.2658 10.1396 12.8383 10.5305 11.6875 11.6813C9.76414 13.6046 10.01 16.1963 10.01 19.9971C10.01 23.8871 9.79331 26.4188 11.6875 28.313C13.6183 30.243 16.2475 29.9905 20.0033 29.9905C23.8566 29.9905 25.1866 29.993 26.5491 29.4655C28.4016 28.7463 29.8 27.0905 29.9366 24.1163C30.0233 22.2755 30.0183 17.7188 29.9366 15.8771C29.7716 12.3663 27.8875 10.2371 24.1233 10.0638ZM27.0358 27.0405C25.775 28.3013 24.0258 28.1888 19.9791 28.1888C15.8125 28.1888 14.1416 28.2505 12.9225 27.028C11.5183 25.6305 11.7725 23.3863 11.7725 19.9838C11.7725 15.3796 11.3 12.0638 15.9208 11.8271C16.9825 11.7896 17.295 11.7771 19.9675 11.7771L20.005 11.8021C24.4458 11.8021 27.93 11.3371 28.1391 15.9571C28.1866 17.0113 28.1975 17.328 28.1975 19.9963C28.1966 24.1146 28.275 25.7955 27.0358 27.0405Z"/>
<path d="M25.3383 15.8622C26.0006 15.8622 26.5375 15.3253 26.5375 14.663C26.5375 14.0008 26.0006 13.4639 25.3383 13.4639C24.676 13.4639 24.1392 14.0008 24.1392 14.663C24.1392 15.3253 24.676 15.8622 25.3383 15.8622Z"/>
</g>
<defs>
<clipPath id="clip0_182_122">
<rect width="20" height="20" transform="translate(10 10)"/>
</clipPath>
</defs>
</svg>
