<svg width="40" height="40" viewBox="0 0 40 40" xmlns="http://www.w3.org/2000/svg">
<g clip-path="url(#clip0_182_128)">
<path d="M26.5958 20.857C26.2725 20.4487 26.365 20.267 26.5958 19.902C26.6 19.8978 29.2692 16.2095 29.5442 14.9587L29.5458 14.9578C29.6825 14.502 29.5458 14.167 28.885 14.167H26.6983C26.1417 14.167 25.885 14.4545 25.7475 14.7762C25.7475 14.7762 24.6342 17.4412 23.0592 19.1687C22.5508 19.6678 22.3158 19.8278 22.0383 19.8278C21.9017 19.8278 21.6892 19.6678 21.6892 19.212V14.9578C21.6892 14.4112 21.5333 14.167 21.0725 14.167H17.6342C17.285 14.167 17.0775 14.422 17.0775 14.6595C17.0775 15.1778 17.865 15.297 17.9467 16.7553V19.9195C17.9467 20.6128 17.8208 20.7403 17.5417 20.7403C16.7983 20.7403 14.9942 18.0645 13.925 15.002C13.7092 14.4078 13.4983 14.1678 12.9375 14.1678H10.75C10.1258 14.1678 10 14.4553 10 14.777C10 15.3453 10.7433 18.1712 13.4567 21.9045C15.265 24.4528 17.8117 25.8337 20.1283 25.8337C21.5208 25.8337 21.6908 25.527 21.6908 24.9995C21.6908 22.5645 21.565 22.3345 22.2625 22.3345C22.5858 22.3345 23.1425 22.4945 24.4425 23.7237C25.9283 25.1812 26.1725 25.8337 27.0042 25.8337H29.1908C29.8142 25.8337 30.13 25.527 29.9483 24.922C29.5325 23.6495 26.7225 21.032 26.5958 20.857Z"/>
</g>
<defs>
<clipPath id="clip0_182_128">
<rect width="20" height="20" transform="translate(10 10)"/>
</clipPath>
</defs>
</svg>
