<svg width="26" height="26" viewBox="0 0 26 26" xmlns="http://www.w3.org/2000/svg">
<g clip-path="url(#clip0_67_716)">
<path d="M3.80713 13.2414C4.63182 12.7812 5.59759 12.6423 6.51856 12.8514M8.04141 7.94859C7.51551 7.15577 7.29755 6.19805 7.42856 5.25573M12.3128 1.33716C11.6619 3.33112 11.7476 5.49239 12.5543 7.42859M22.0071 24.5143L9.60141 19.89C9.23419 19.7603 8.9055 19.5403 8.6456 19.2503C8.3857 18.9603 8.20294 18.6095 8.11415 18.2303C8.02537 17.8511 8.03341 17.4557 8.13753 17.0804C8.24165 16.7052 8.43851 16.3621 8.70999 16.0829L16.4914 8.30144C16.7789 8.03203 17.1297 7.83955 17.5113 7.74185C17.893 7.64415 18.2931 7.64439 18.6747 7.74256C19.0562 7.84072 19.4068 8.03362 19.6939 8.30339C19.981 8.57315 20.1954 8.91104 20.3171 9.28573L24.9228 21.6914C25.0508 22.0933 25.064 22.523 24.961 22.932C24.858 23.341 24.6429 23.7131 24.3398 24.0065C24.0368 24.2999 23.6579 24.5029 23.2458 24.5926C22.8337 24.6823 22.4047 24.6552 22.0071 24.5143Z" stroke="black" stroke-width="2" stroke-linecap="round" stroke-linejoin="round"/>
<path d="M1.85728 7.01998C2.37012 7.01998 2.78585 6.60425 2.78585 6.09141C2.78585 5.57858 2.37012 5.16284 1.85728 5.16284C1.34445 5.16284 0.928711 5.57858 0.928711 6.09141C0.928711 6.60425 1.34445 7.01998 1.85728 7.01998Z" stroke="black" stroke-width="2" stroke-linecap="round" stroke-linejoin="round"/>
</g>
<defs>
<clipPath id="clip0_67_716">
<rect width="26" height="26"/>
</clipPath>
</defs>
</svg>
