<svg width="26" height="26" viewBox="0 0 26 26" xmlns="http://www.w3.org/2000/svg">
<path d="M13.0002 8.12505C12.036 8.12505 11.0935 8.41096 10.2918 8.94663C9.49007 9.4823 8.86523 10.2437 8.49626 11.1345C8.12728 12.0253 8.03074 13.0055 8.21884 13.9511C8.40694 14.8968 8.87124 15.7654 9.55302 16.4472C10.2348 17.129 11.1034 17.5933 12.0491 17.7814C12.9948 17.9695 13.975 17.8729 14.8658 17.504C15.7565 17.135 16.5179 16.5101 17.0536 15.7085C17.5893 14.9068 17.8752 13.9642 17.8752 13C17.8738 11.7075 17.3598 10.4683 16.4458 9.55439C15.5319 8.64044 14.2927 8.12639 13.0002 8.12505ZM13.0002 16.25C12.3574 16.25 11.729 16.0594 11.1946 15.7023C10.6601 15.3452 10.2435 14.8376 9.99756 14.2438C9.75157 13.6499 9.68721 12.9964 9.81262 12.366C9.93802 11.7356 10.2476 11.1565 10.7021 10.7019C11.1566 10.2474 11.7357 9.9379 12.3661 9.81249C12.9966 9.68709 13.65 9.75145 14.2439 9.99744C14.8377 10.2434 15.3453 10.66 15.7024 11.1944C16.0596 11.7289 16.2502 12.3573 16.2502 13C16.2502 13.862 15.9078 14.6887 15.2983 15.2981C14.6888 15.9076 13.8621 16.25 13.0002 16.25ZM21.9377 13.2194C21.9417 13.0732 21.9417 12.9269 21.9377 12.7807L23.453 10.8875C23.5324 10.7881 23.5874 10.6715 23.6135 10.5469C23.6396 10.4224 23.6361 10.2935 23.6033 10.1705C23.3549 9.23675 22.9833 8.34021 22.4983 7.5045C22.4348 7.39513 22.3466 7.3021 22.2408 7.23281C22.1351 7.16352 22.0145 7.11988 21.8889 7.10536L19.4799 6.83723C19.3796 6.73161 19.2781 6.63005 19.1752 6.53255L18.8908 4.11739C18.8762 3.99167 18.8324 3.8711 18.7629 3.7653C18.6934 3.65951 18.6002 3.5714 18.4906 3.50802C17.6546 3.02391 16.7581 2.65269 15.8246 2.40403C15.7016 2.37132 15.5726 2.36798 15.4481 2.39426C15.3235 2.42055 15.2069 2.47573 15.1076 2.55536L13.2195 4.06255H12.7808L10.8877 2.55028C10.7883 2.47083 10.6716 2.41583 10.5471 2.38972C10.4225 2.36361 10.2936 2.36712 10.1706 2.39997C9.23702 2.64882 8.34054 3.0204 7.50462 3.50497C7.39526 3.56847 7.30223 3.65663 7.23293 3.76242C7.16364 3.86821 7.12 3.98871 7.10548 4.11434L6.83736 6.52747C6.73173 6.62835 6.63017 6.72992 6.53267 6.83216L4.11751 7.10942C3.99179 7.12405 3.87122 7.16784 3.76543 7.23732C3.65963 7.30679 3.57152 7.40002 3.50814 7.50958C3.02404 8.3456 2.65281 9.24207 2.40415 10.1756C2.37145 10.2986 2.3681 10.4276 2.39439 10.5521C2.42067 10.6767 2.47585 10.7933 2.55548 10.8926L4.06267 12.7807V13.2194L2.5504 15.1125C2.47095 15.2119 2.41595 15.3286 2.38984 15.4532C2.36374 15.5777 2.36725 15.7066 2.40009 15.8296C2.6485 16.7633 3.0201 17.6599 3.50509 18.4956C3.56859 18.605 3.65675 18.698 3.76254 18.7673C3.86833 18.8366 3.98884 18.8802 4.11447 18.8947L6.52353 19.1629C6.62441 19.2685 6.72598 19.37 6.82822 19.4675L7.10954 21.8827C7.12417 22.0084 7.16797 22.129 7.23744 22.2348C7.30691 22.3406 7.40015 22.4287 7.5097 22.4921C8.34573 22.9762 9.24219 23.3474 10.1757 23.5961C10.2987 23.6288 10.4277 23.6321 10.5523 23.6058C10.6768 23.5795 10.7934 23.5244 10.8927 23.4447L12.7808 21.9375C12.927 21.9416 13.0733 21.9416 13.2195 21.9375L15.1127 23.4529C15.2121 23.5323 15.3287 23.5873 15.4533 23.6134C15.5778 23.6395 15.7068 23.636 15.8297 23.6032C16.7635 23.3548 17.66 22.9832 18.4957 22.4982C18.6051 22.4347 18.6981 22.3465 18.7674 22.2407C18.8367 22.1349 18.8803 22.0144 18.8949 21.8888L19.163 19.4797C19.2686 19.3795 19.3702 19.278 19.4677 19.175L21.8828 18.8907C22.0085 18.876 22.1291 18.8322 22.2349 18.7628C22.3407 18.6933 22.4288 18.6001 22.4922 18.4905C22.9763 17.6545 23.3475 16.758 23.5962 15.8245C23.6289 15.7015 23.6322 15.5725 23.606 15.448C23.5797 15.3234 23.5245 15.2068 23.4449 15.1075L21.9377 13.2194ZM20.3025 12.5593C20.3198 12.8529 20.3198 13.1472 20.3025 13.4408C20.2904 13.6418 20.3534 13.8402 20.4792 13.9974L21.9204 15.7981C21.755 16.3236 21.5433 16.8335 21.2877 17.3215L18.9924 17.5815C18.7925 17.6037 18.6079 17.6993 18.4744 17.8497C18.2789 18.0695 18.0707 18.2778 17.8508 18.4732C17.7004 18.6068 17.6049 18.7913 17.5827 18.9912L17.3277 21.2845C16.8397 21.5402 16.3299 21.752 15.8043 21.9172L14.0026 20.4761C13.8584 20.3609 13.6793 20.2982 13.4948 20.2983H13.446C13.1524 20.3156 12.8581 20.3156 12.5645 20.2983C12.3635 20.2862 12.1651 20.3492 12.0079 20.475L10.2021 21.9172C9.67657 21.7519 9.16675 21.5401 8.67868 21.2845L8.41868 18.9922C8.3965 18.7923 8.30096 18.6078 8.15056 18.4743C7.93069 18.2788 7.72246 18.0705 7.52697 17.8507C7.39344 17.7003 7.20889 17.6047 7.009 17.5825L4.71572 17.3266C4.45997 16.8386 4.24822 16.3288 4.08298 15.8032L5.52415 14.0015C5.64999 13.8442 5.71297 13.6459 5.70087 13.4449C5.68361 13.1513 5.68361 12.8569 5.70087 12.5633C5.71297 12.3623 5.64999 12.164 5.52415 12.0068L4.08298 10.202C4.24835 9.67645 4.46009 9.16663 4.71572 8.67856L7.00798 8.41856C7.20787 8.39637 7.39243 8.30084 7.52595 8.15044C7.72145 7.93056 7.92967 7.72234 8.14954 7.52684C8.30054 7.39323 8.39647 7.20826 8.41868 7.00786L8.67361 4.71559C9.16162 4.45985 9.67145 4.2481 10.197 4.08286L11.9988 5.52403C12.156 5.64987 12.3543 5.71285 12.5553 5.70075C12.8489 5.68348 13.1433 5.68348 13.4369 5.70075C13.6379 5.71285 13.8362 5.64987 13.9935 5.52403L15.7982 4.08286C16.3238 4.24823 16.8336 4.45997 17.3217 4.71559L17.5817 7.00786C17.6038 7.20775 17.6994 7.39231 17.8498 7.52583C18.0697 7.72133 18.2779 7.92955 18.4734 8.14942C18.6069 8.29982 18.7915 8.39536 18.9913 8.41755L21.2846 8.67247C21.5404 9.16048 21.7521 9.67031 21.9174 10.1959L20.4762 11.9976C20.3491 12.1562 20.2861 12.3565 20.2995 12.5593H20.3025Z"/>
</svg>
