<svg width="36" height="50" viewBox="0 0 36 50" xmlns="http://www.w3.org/2000/svg">
<path d="M12.4863 6.51758V10.0332C12.3652 10.1621 12.1875 10.3125 11.9531 10.4844C11.7227 10.6523 11.4199 10.8008 11.0449 10.9297C10.6738 11.0547 10.2207 11.1172 9.68555 11.1172C9.21289 11.1172 8.7832 11.043 8.39648 10.8945C8.01367 10.7461 7.68359 10.5215 7.40625 10.2207C7.13281 9.91602 6.92383 9.53711 6.7793 9.08398C6.63477 8.62695 6.5625 8.08594 6.5625 7.46094V6.00781C6.5625 5.39062 6.63086 4.85352 6.76758 4.39648C6.9082 3.93555 7.11133 3.55273 7.37695 3.24805C7.64258 2.94336 7.95898 2.7168 8.32617 2.56836C8.69727 2.41992 9.11523 2.3457 9.58008 2.3457C10.2207 2.3457 10.7461 2.45312 11.1562 2.66797C11.5703 2.88281 11.8828 3.20117 12.0938 3.62305C12.3086 4.04492 12.4375 4.5625 12.4805 5.17578H10.8223C10.7949 4.81641 10.7344 4.53516 10.6406 4.33203C10.5508 4.12891 10.4238 3.98438 10.2598 3.89844C10.0957 3.80859 9.88281 3.76367 9.62109 3.76367C9.39453 3.76367 9.19727 3.80469 9.0293 3.88672C8.86133 3.96484 8.7207 4.09375 8.60742 4.27344C8.49414 4.45312 8.41016 4.68359 8.35547 4.96484C8.30078 5.24609 8.27344 5.58984 8.27344 5.99609V7.46094C8.27344 7.86328 8.30469 8.20703 8.36719 8.49219C8.42969 8.77734 8.52148 9.00977 8.64258 9.18945C8.76758 9.36914 8.92383 9.5 9.11133 9.58203C9.30273 9.66016 9.52734 9.69922 9.78516 9.69922C9.99219 9.69922 10.1582 9.67773 10.2832 9.63477C10.4082 9.5918 10.5078 9.54688 10.582 9.5C10.6602 9.44922 10.7246 9.41016 10.7754 9.38281V7.8125H9.55078V6.51758H12.4863ZM17.9039 2.46875V11H16.1988V2.46875H17.9039ZM24.9914 2.46875V11H23.2863V2.46875H24.9914ZM27.1125 2.46875V3.89258H21.2063V2.46875H27.1125Z"/>
<path d="M17.7171 17C10.5086 16.9991 4.3636 22.322 3.20946 29.5669C2.05532 36.8118 6.23279 43.8395 13.072 46.1585C13.8087 46.2935 14.0724 45.833 14.0724 45.437C14.0724 45.0815 14.0606 44.1395 14.0562 42.887C9.96798 43.787 9.10468 40.88 9.10468 40.88C8.83555 39.9754 8.25696 39.199 7.47383 38.6915C6.14794 37.763 7.57548 37.784 7.57548 37.784C8.51934 37.9158 9.35004 38.4852 9.82508 39.326C10.2272 40.0704 10.9046 40.6204 11.7068 40.8539C12.5091 41.0874 13.3697 40.985 14.0974 40.5695C14.1658 39.8105 14.4974 39.1011 15.0329 38.5685C11.7712 38.192 8.34155 36.908 8.34155 31.1735C8.32345 29.6903 8.8644 28.2564 9.85307 27.167C9.40573 25.876 9.45841 24.4599 10.0004 23.207C10.0004 23.207 11.2335 22.8035 14.0399 24.7385C16.447 24.0665 18.9872 24.0665 21.3942 24.7385C24.2022 22.802 25.4338 23.207 25.4338 23.207C25.9783 24.4593 26.031 25.8764 25.5811 27.167C26.5734 28.2563 27.1139 29.694 27.0897 31.1795C27.0897 36.929 23.6571 38.192 20.3836 38.5625C21.0898 39.2976 21.4519 40.306 21.378 41.3315C21.378 43.3325 21.3603 44.9465 21.3603 45.437C21.3603 45.8375 21.6226 46.3025 22.3724 46.1555C29.2089 43.8325 33.3818 36.8045 32.2253 29.5615C31.0688 22.3185 24.9241 16.9983 17.7171 17Z"/>
</svg>
