<svg width="26" height="26" viewBox="0 0 26 26" xmlns="http://www.w3.org/2000/svg">
<path d="M14.0834 10.8334L20.5281 21.1424C20.5603 21.1943 20.578 21.2538 20.5795 21.3149C20.581 21.3759 20.5662 21.4362 20.5366 21.4897C20.5071 21.5431 20.4638 21.5876 20.4112 21.6188C20.3587 21.6499 20.2988 21.6664 20.2378 21.6667H5.76227C5.70089 21.6664 5.64072 21.6497 5.58801 21.6182C5.53531 21.5868 5.49199 21.5418 5.46257 21.4879C5.43315 21.4341 5.4187 21.3733 5.42073 21.3119C5.42276 21.2506 5.44119 21.1909 5.4741 21.1391L11.9167 10.8334V3.25004H14.0834V10.8334ZM7.58335 1.08337V3.25004H9.75002V10.2484L3.63894 19.9875C3.40066 20.3673 3.26839 20.8039 3.25586 21.252C3.24334 21.7002 3.351 22.1435 3.56769 22.536C3.78438 22.9284 4.10218 23.2557 4.48809 23.4839C4.874 23.712 5.31396 23.8327 5.76227 23.8334H20.2378C20.6861 23.8327 21.126 23.712 21.5119 23.4839C21.8979 23.2557 22.2157 22.9284 22.4324 22.536C22.649 22.1435 22.7567 21.7002 22.7442 21.252C22.7316 20.8039 22.5994 20.3673 22.3611 19.9875L16.2511 10.2484L16.25 3.25004H18.4167V1.08337H7.58335Z"/>
</svg>
