<svg width="22" height="22" viewBox="0 0 22 22" xmlns="http://www.w3.org/2000/svg">
<path d="M10.7953 0.166687C5.58913 0.166006 1.15111 4.01034 0.317567 9.24278C-0.515978 14.4752 2.50108 19.5507 7.44054 21.2256C7.97254 21.3231 8.16299 20.9905 8.16299 20.7045C8.16299 20.4478 8.15448 19.7674 8.15129 18.8629C5.19872 19.5129 4.57522 17.4134 4.57522 17.4134C4.38085 16.7601 3.96298 16.1993 3.39739 15.8328C2.4398 15.1622 3.4708 15.1774 3.4708 15.1774C4.15248 15.2725 4.75243 15.6838 5.09551 16.291C5.38591 16.8286 5.87516 17.2259 6.45455 17.3945C7.03394 17.5632 7.65548 17.4892 8.18108 17.1891C8.23047 16.6409 8.46999 16.1286 8.85671 15.7439C6.50104 15.472 4.02408 14.5447 4.02408 10.4031C4.011 9.3319 4.40168 8.29634 5.11573 7.50952C4.79265 6.57711 4.8307 5.55438 5.22213 4.64952C5.22213 4.64952 6.11268 4.3581 8.13958 5.7556C9.87798 5.27028 11.7126 5.27028 13.451 5.7556C15.479 4.35702 16.3685 4.64952 16.3685 4.64952C16.7617 5.55395 16.7998 6.57739 16.4749 7.50952C17.1915 8.29627 17.5819 9.33455 17.5644 10.4074C17.5644 14.5599 15.0853 15.472 12.7211 15.7396C13.2311 16.2705 13.4927 16.9988 13.4393 17.7394C13.4393 19.1846 13.4265 20.3503 13.4265 20.7045C13.4265 20.9938 13.6159 21.3296 14.1575 21.2234C19.0949 19.5457 22.1087 14.4699 21.2735 9.23886C20.4382 4.00781 16.0004 0.165475 10.7953 0.166687Z"/>
</svg>
