<svg width="27" height="27" viewBox="0 0 27 27" xmlns="http://www.w3.org/2000/svg">
<path d="M0 21V18H3V21H0ZM0 9V6H3V9H0ZM6 27V24H9V27H6ZM6 3V0H9V3H6ZM18 27V24H21V27H18ZM18 3V0H21V3H18ZM24 21V18H27V21H24ZM24 9V6H27V9H24ZM9 21C8.175 21 7.4685 20.706 6.8805 20.118C6.2925 19.53 5.999 18.824 6 18V9C6 8.175 6.294 7.4685 6.882 6.8805C7.47 6.2925 8.176 5.999 9 6H18C18.825 6 19.5315 6.294 20.1195 6.882C20.7075 7.47 21.001 8.176 21 9V18C21 18.825 20.706 19.5315 20.118 20.1195C19.53 20.7075 18.824 21.001 18 21H9ZM9 18H18V9H9V18Z"/>
</svg>
