<?xml version="1.0" standalone="no"?>
<!DOCTYPE svg PUBLIC "-//W3C//DTD SVG 20010904//EN"
 "http://www.w3.org/TR/2001/REC-SVG-20010904/DTD/svg10.dtd">
<svg version="1.0" xmlns="http://www.w3.org/2000/svg"
 width="1280.000000pt" height="843.000000pt" viewBox="0 0 1280.000000 843.000000"
 preserveAspectRatio="xMidYMid meet">
<metadata>
Created by potrace 1.16, written by Peter Selinger 2001-2019
</metadata>
<g transform="translate(0.000000,843.000000) scale(0.100000,-0.100000)"
 stroke="none">
<path d="M11915 8420 c-88 -4 -191 -15 -230 -23 -377 -85 -755 -284 -1330
-699 -88 -63 -257 -182 -375 -265 -118 -82 -516 -368 -885 -634 -995 -721
-1084 -784 -1152 -818 -90 -46 -154 -56 -269 -43 -53 6 -99 13 -102 16 -3 3
14 33 37 66 66 94 84 144 85 230 0 100 -27 186 -84 274 -55 84 -114 139 -189
173 -73 35 -176 30 -271 -12 -175 -78 -393 -223 -614 -408 -146 -123 -218
-167 -273 -167 -119 0 -1129 170 -2463 415 -311 57 -826 152 -1145 210 -319
58 -807 149 -1085 201 -886 168 -924 174 -1029 174 -195 0 -316 -60 -468 -233
-39 -44 -63 -79 -61 -91 3 -16 159 -75 878 -333 481 -173 883 -317 893 -320
14 -4 16 -12 10 -42 -4 -20 -8 -52 -8 -71 l0 -34 285 -112 c157 -62 291 -116
299 -121 12 -7 11 -17 -3 -65 -26 -90 -27 -89 56 -67 39 11 85 19 100 19 35 0
177 -53 576 -214 461 -186 502 -208 537 -285 l18 -41 121 0 121 0 103 -45
c155 -67 193 -74 430 -85 287 -14 302 -17 438 -112 45 -31 90 -54 123 -61 l53
-12 -51 -64 c-28 -35 -51 -69 -51 -77 0 -7 35 -31 79 -54 122 -64 117 -57 101
-129 -7 -34 -11 -63 -9 -66 3 -2 48 -8 100 -14 88 -9 106 -14 218 -70 66 -34
121 -67 121 -74 0 -18 -105 -97 -755 -563 -893 -641 -896 -644 -990 -644 -72
0 -139 18 -435 115 -124 41 -389 127 -590 191 l-365 118 -115 1 c-108 0 -118
-2 -170 -29 -119 -62 -230 -156 -282 -235 -57 -90 -50 -113 189 -564 63 -120
113 -221 109 -224 -6 -6 -769 77 -1256 138 -436 54 -508 52 -644 -19 -78 -41
-209 -162 -204 -189 2 -12 49 -32 156 -68 108 -37 171 -64 211 -92 111 -79
249 -139 1176 -513 768 -310 715 -288 715 -300 0 -6 -34 -94 -75 -197 -41
-103 -75 -193 -75 -200 0 -20 108 -37 230 -37 91 1 137 6 220 27 121 31 178
34 226 11 45 -22 321 -253 824 -693 278 -242 322 -270 422 -271 109 0 245 77
287 163 36 73 29 135 -54 496 -121 531 -157 701 -162 786 -5 71 -3 83 16 107
27 34 135 89 576 293 638 295 918 454 1345 765 308 224 419 287 750 420 215
87 316 120 367 120 31 0 67 -12 125 -41 66 -33 364 -197 536 -295 29 -17 32
-23 27 -49 -4 -16 -9 -47 -12 -67 l-6 -38 139 0 c94 0 155 5 188 15 142 43
187 4 246 -217 37 -134 53 -168 130 -267 32 -42 72 -105 88 -141 28 -62 33
-68 109 -112 110 -64 171 -123 333 -323 177 -218 244 -280 407 -377 72 -43
154 -99 182 -124 29 -26 130 -151 226 -278 185 -247 268 -339 323 -357 19 -6
60 -9 92 -7 47 3 73 13 141 53 141 83 245 133 304 145 l57 12 -6 36 c-7 45
-185 704 -417 1547 -184 666 -219 805 -219 874 0 38 5 49 38 80 21 20 86 60
143 90 382 199 710 480 774 662 43 120 -23 301 -151 419 -70 65 -112 80 -227
80 -81 0 -304 -25 -393 -45 -14 -3 -32 -26 -52 -67 -56 -113 -156 -206 -335
-312 l-78 -46 -10 28 c-26 66 -144 430 -181 557 -38 131 -41 150 -45 300 l-4
160 40 61 c55 83 261 281 401 385 63 47 264 189 445 314 878 606 1225 875
1545 1195 195 195 259 272 395 480 125 190 213 347 261 464 30 74 37 104 41
185 9 153 -23 213 -139 267 l-63 29 -260 1 c-143 1 -332 -2 -420 -6z"/>
</g>
</svg>
