<?xml version="1.0" standalone="no"?>
<!DOCTYPE svg PUBLIC "-//W3C//DTD SVG 20010904//EN"
 "http://www.w3.org/TR/2001/REC-SVG-20010904/DTD/svg10.dtd">
<svg version="1.0" xmlns="http://www.w3.org/2000/svg"
 width="1280.000000pt" height="843.000000pt" viewBox="0 0 1280.000000 843.000000"
 preserveAspectRatio="xMidYMid meet">
<metadata>
Created by potrace 1.15, written by Peter Selinger 2001-2017
</metadata>
<g transform="translate(0.000000,843.000000) scale(0.100000,-0.100000)"
stroke="none">
<path d="M255 8423 c-105 -15 -189 -62 -226 -126 -21 -37 -24 -53 -23 -142 1
-86 5 -111 33 -185 41 -110 137 -285 256 -467 137 -209 202 -290 355 -447 341
-350 739 -658 1669 -1294 162 -111 349 -243 415 -294 147 -113 319 -283 366
-363 l35 -59 -1 -146 c0 -134 -3 -156 -37 -285 -21 -77 -74 -249 -119 -382
l-82 -242 -56 31 c-94 52 -188 117 -247 171 -62 57 -128 151 -138 197 -6 26
-11 30 -53 34 -26 3 -105 15 -177 26 -178 28 -265 27 -332 -5 -99 -46 -205
-186 -240 -316 -23 -90 -9 -153 58 -253 114 -170 434 -419 729 -566 133 -66
180 -109 180 -163 0 -54 -41 -231 -106 -460 -94 -331 -544 -1980 -544 -1995 0
-5 22 -12 49 -15 61 -7 154 -49 258 -115 118 -76 166 -95 229 -90 37 3 66 13
95 34 56 38 160 164 308 372 162 226 205 268 366 357 178 98 241 155 421 385
175 224 248 289 403 360 8 3 22 29 32 57 20 61 38 89 101 167 74 90 94 132
121 252 49 219 109 272 253 225 52 -17 89 -21 194 -21 97 0 130 3 130 13 0 6
-7 37 -15 67 -12 44 -12 57 -2 63 53 34 508 288 571 318 126 61 129 61 546
-109 309 -125 387 -170 680 -387 275 -204 564 -384 875 -546 83 -43 344 -166
580 -274 321 -146 439 -205 464 -230 60 -59 58 -85 -53 -585 -54 -239 -110
-487 -126 -550 -49 -187 -37 -269 51 -343 113 -97 242 -120 348 -62 30 17 93
64 140 105 431 378 879 761 935 801 85 60 108 62 279 18 97 -25 143 -32 222
-32 85 0 205 19 221 36 2 2 -33 93 -79 203 -46 109 -81 202 -78 206 3 3 267
111 586 238 910 364 1220 496 1280 545 68 55 114 76 268 123 70 22 131 42 134
46 9 9 -64 93 -120 138 -152 120 -280 138 -607 88 -144 -22 -1390 -163 -1396
-158 -1 2 54 109 123 238 244 456 241 451 204 534 -35 79 -164 191 -301 261
-43 22 -72 29 -135 33 -70 3 -95 -1 -195 -31 -155 -47 -921 -293 -1092 -351
-150 -51 -251 -67 -310 -47 -52 17 -234 140 -583 392 -171 123 -489 352 -708
509 -306 219 -397 289 -397 305 0 17 25 33 131 85 128 63 134 64 226 68 81 4
93 7 89 21 -8 26 -25 105 -26 116 0 6 45 33 100 60 55 27 100 52 100 56 0 4
-27 40 -59 80 l-59 74 57 5 c46 4 65 12 101 41 25 20 68 50 95 67 88 52 131
60 360 65 238 5 285 15 448 90 92 42 92 42 217 43 l124 1 17 40 c33 79 64 95
576 301 263 106 495 195 514 198 31 5 76 -3 176 -32 l22 -6 -19 73 c-11 40
-18 74 -17 75 1 1 137 54 301 118 165 64 302 119 304 121 3 2 -2 33 -11 67 -9
35 -13 66 -9 69 4 3 129 49 277 102 203 72 1168 417 1482 530 18 7 33 16 33
20 3 17 -122 158 -178 202 -120 95 -244 133 -401 122 -89 -7 -107 -10 -711
-126 -381 -73 -1088 -203 -3125 -576 -822 -151 -1783 -307 -1843 -301 -75 9
-115 32 -233 136 -242 214 -554 416 -718 464 -114 34 -205 9 -301 -80 -153
-143 -213 -360 -141 -509 16 -33 48 -82 70 -110 27 -34 36 -52 28 -56 -7 -4
-56 -12 -110 -17 -154 -17 -227 3 -372 101 -80 55 -779 560 -1346 972 -251
183 -525 379 -610 435 -85 57 -228 158 -319 225 -628 462 -1066 685 -1465 744
-71 10 -704 22 -760 14z"/>
</g>
</svg>
