<svg width="36" height="50" viewBox="0 0 36 50" xmlns="http://www.w3.org/2000/svg">
<path d="M5.41992 5.92578V7.34375H1.92188V5.92578H5.41992ZM2.4082 2.46875V11H0.691406V2.46875H2.4082ZM6.66211 2.46875V11H4.96289V2.46875H6.66211ZM13.6852 2.46875V11H11.9801V2.46875H13.6852ZM15.8062 2.46875V3.89258H9.9V2.46875H15.8062ZM19.8117 2.46875H21.3176L23.0578 8.30469L24.7922 2.46875H26.1223L23.6965 11H22.4133L19.8117 2.46875ZM19.2023 2.46875H20.6379L20.8605 8.09375V11H19.2023V2.46875ZM25.466 2.46875H26.9074V11H25.2551V8.09375L25.466 2.46875ZM35.4422 9.58203V11H31.8973V9.58203H35.4422ZM32.4246 2.46875V11H30.7078V2.46875H32.4246Z"/>
<path d="M17.9746 45.4819L8.3536 42.7429L6.2041 18.5179H29.7976L27.6541 42.7429L17.9746 45.4819ZM11.5366 33.9454L11.9041 38.6299L17.9986 40.2574L24.0406 38.6374L24.8791 29.4679H14.1031L13.8436 26.4184H25.1431L25.4041 23.4769H10.5991L11.3821 32.4769H21.6361L21.2716 36.3259L18.0031 37.2259L14.6791 36.3154L14.4676 33.9454H11.5366Z"/>
</svg>
