<svg width="45" height="66" viewBox="0 0 45 66"xmlns="http://www.w3.org/2000/svg">
<path d="M10.2528 9.1499V2.75781H12.1063V9.1499C12.1063 9.76774 11.9879 10.3009 11.7509 10.7495C11.5181 11.1938 11.2007 11.5345 10.7987 11.7715C10.3967 12.0085 9.94391 12.127 9.44033 12.127C8.92406 12.127 8.46279 12.0254 8.05654 11.8223C7.65453 11.6149 7.33714 11.2996 7.10439 10.8765C6.87165 10.4533 6.75527 9.91797 6.75527 9.27051H8.62148C8.62148 9.60059 8.65534 9.86084 8.72305 10.0513C8.79076 10.2417 8.88597 10.3792 9.00869 10.4639C9.13564 10.5485 9.27953 10.5908 9.44033 10.5908C9.61384 10.5908 9.75983 10.5337 9.87832 10.4194C10.001 10.3052 10.0941 10.1423 10.1576 9.93066C10.2211 9.71484 10.2528 9.45459 10.2528 9.1499ZM19.1243 10.4194V7.24561C19.1243 7.03825 19.0989 6.87321 19.0481 6.75049C19.0016 6.62777 18.9297 6.5389 18.8323 6.48389C18.7392 6.42464 18.625 6.39502 18.4896 6.39502C18.3372 6.39502 18.2103 6.42676 18.1087 6.49023C18.0071 6.55371 17.931 6.64469 17.8802 6.76318C17.8336 6.88167 17.8104 7.02344 17.8104 7.18848H16.0267C16.0267 6.89225 16.0838 6.61296 16.198 6.35059C16.3123 6.08398 16.4795 5.85124 16.6995 5.65234C16.9238 5.44922 17.1904 5.29053 17.4993 5.17627C17.8082 5.06201 18.1552 5.00488 18.5403 5.00488C18.9974 5.00488 19.4036 5.08317 19.7591 5.23975C20.1146 5.39209 20.396 5.63542 20.6033 5.96973C20.8107 6.30404 20.9144 6.73779 20.9144 7.271V10.3306C20.9144 10.7157 20.9334 11.0288 20.9715 11.27C21.0138 11.5112 21.0752 11.7186 21.1556 11.8921V12H19.3655C19.2851 11.8096 19.2238 11.5726 19.1814 11.2891C19.1434 11.0013 19.1243 10.7114 19.1243 10.4194ZM19.3401 7.8042L19.3465 8.87061H18.6927C18.5234 8.87061 18.3753 8.89811 18.2483 8.95312C18.1256 9.00814 18.0219 9.08643 17.9373 9.18799C17.8527 9.28532 17.7892 9.39958 17.7469 9.53076C17.7088 9.66195 17.6897 9.8016 17.6897 9.94971C17.6897 10.1147 17.713 10.2544 17.7596 10.3687C17.8061 10.4829 17.8759 10.5697 17.969 10.6289C18.0621 10.6882 18.1722 10.7178 18.2991 10.7178C18.4938 10.7178 18.6631 10.6776 18.8069 10.5972C18.9508 10.5168 19.0566 10.4194 19.1243 10.3052C19.1963 10.1909 19.2195 10.0851 19.1941 9.98779L19.6004 10.6797C19.5496 10.8363 19.4798 10.9992 19.3909 11.1685C19.3063 11.3377 19.1984 11.4943 19.0672 11.6382C18.936 11.7821 18.7731 11.9006 18.5784 11.9937C18.388 12.0825 18.1616 12.127 17.8992 12.127C17.5311 12.127 17.1946 12.0423 16.8899 11.873C16.5853 11.7038 16.344 11.4668 16.1663 11.1621C15.9928 10.8574 15.9061 10.4956 15.9061 10.0767C15.9061 9.72965 15.9611 9.4165 16.0711 9.13721C16.1854 8.85368 16.3546 8.61458 16.5789 8.41992C16.8032 8.22103 17.0867 8.06868 17.4295 7.96289C17.7723 7.8571 18.1743 7.8042 18.6355 7.8042H19.3401ZM26.7517 10.6289L27.8562 5.13184H29.7097L27.8244 12H26.7136L26.7517 10.6289ZM26.0979 5.13184L27.2214 10.6353L27.2404 12H26.1232L24.238 5.13184H26.0979ZM36.0929 10.4194V7.24561C36.0929 7.03825 36.0675 6.87321 36.0167 6.75049C35.9702 6.62777 35.8982 6.5389 35.8009 6.48389C35.7078 6.42464 35.5935 6.39502 35.4581 6.39502C35.3058 6.39502 35.1788 6.42676 35.0772 6.49023C34.9757 6.55371 34.8995 6.64469 34.8487 6.76318C34.8022 6.88167 34.7789 7.02344 34.7789 7.18848H32.9952C32.9952 6.89225 33.0523 6.61296 33.1666 6.35059C33.2809 6.08398 33.448 5.85124 33.6681 5.65234C33.8924 5.44922 34.159 5.29053 34.4679 5.17627C34.7768 5.06201 35.1238 5.00488 35.5089 5.00488C35.9659 5.00488 36.3722 5.08317 36.7276 5.23975C37.0831 5.39209 37.3645 5.63542 37.5719 5.96973C37.7792 6.30404 37.8829 6.73779 37.8829 7.271V10.3306C37.8829 10.7157 37.902 11.0288 37.94 11.27C37.9824 11.5112 38.0437 11.7186 38.1241 11.8921V12H36.3341C36.2537 11.8096 36.1923 11.5726 36.15 11.2891C36.1119 11.0013 36.0929 10.7114 36.0929 10.4194ZM36.3087 7.8042L36.315 8.87061H35.6612C35.492 8.87061 35.3438 8.89811 35.2169 8.95312C35.0942 9.00814 34.9905 9.08643 34.9059 9.18799C34.8212 9.28532 34.7577 9.39958 34.7154 9.53076C34.6773 9.66195 34.6583 9.8016 34.6583 9.94971C34.6583 10.1147 34.6816 10.2544 34.7281 10.3687C34.7747 10.4829 34.8445 10.5697 34.9376 10.6289C35.0307 10.6882 35.1407 10.7178 35.2677 10.7178C35.4623 10.7178 35.6316 10.6776 35.7755 10.5972C35.9194 10.5168 36.0252 10.4194 36.0929 10.3052C36.1648 10.1909 36.1881 10.0851 36.1627 9.98779L36.5689 10.6797C36.5182 10.8363 36.4483 10.9992 36.3595 11.1685C36.2748 11.3377 36.1669 11.4943 36.0357 11.6382C35.9046 11.7821 35.7416 11.9006 35.547 11.9937C35.3565 12.0825 35.1301 12.127 34.8678 12.127C34.4996 12.127 34.1632 12.0423 33.8585 11.873C33.5538 11.7038 33.3126 11.4668 33.1349 11.1621C32.9614 10.8574 32.8746 10.4956 32.8746 10.0767C32.8746 9.72965 32.9296 9.4165 33.0396 9.13721C33.1539 8.85368 33.3232 8.61458 33.5475 8.41992C33.7717 8.22103 34.0553 8.06868 34.398 7.96289C34.7408 7.8571 35.1428 7.8042 35.6041 7.8042H36.3087ZM5.1582 24.5688C5.1582 24.4038 5.14339 24.2536 5.11377 24.1182C5.08415 23.9827 5.02067 23.8579 4.92334 23.7437C4.83024 23.6294 4.69271 23.5151 4.51074 23.4009C4.33301 23.2866 4.10026 23.1681 3.8125 23.0454C3.46973 22.9015 3.13753 22.7492 2.81592 22.5884C2.4943 22.4233 2.20443 22.2329 1.94629 22.0171C1.68815 21.8013 1.48291 21.5474 1.33057 21.2554C1.18245 20.9591 1.1084 20.6121 1.1084 20.2144C1.1084 19.825 1.17822 19.4717 1.31787 19.1543C1.46175 18.8369 1.66488 18.5661 1.92725 18.3418C2.18962 18.1133 2.49642 17.9377 2.84766 17.8149C3.20312 17.6922 3.5988 17.6309 4.03467 17.6309C4.62712 17.6309 5.13916 17.7536 5.5708 17.999C6.00667 18.2445 6.3431 18.5809 6.58008 19.0083C6.82129 19.4357 6.94189 19.9266 6.94189 20.481H5.08838C5.08838 20.2186 5.05029 19.988 4.97412 19.7891C4.90218 19.5859 4.78581 19.4272 4.625 19.313C4.46419 19.1987 4.25684 19.1416 4.00293 19.1416C3.76595 19.1416 3.56917 19.1903 3.4126 19.2876C3.26025 19.3807 3.146 19.5098 3.06982 19.6748C2.99788 19.8356 2.96191 20.0176 2.96191 20.2207C2.96191 20.373 2.99788 20.5106 3.06982 20.6333C3.146 20.7518 3.24967 20.8597 3.38086 20.957C3.51204 21.0501 3.6665 21.1411 3.84424 21.23C4.0262 21.3188 4.2251 21.4056 4.44092 21.4902C4.85986 21.6553 5.23014 21.8372 5.55176 22.0361C5.87337 22.2308 6.14209 22.4508 6.35791 22.6963C6.57373 22.9375 6.73665 23.2104 6.84668 23.5151C6.95671 23.8198 7.01172 24.1668 7.01172 24.5562C7.01172 24.9412 6.94401 25.2925 6.80859 25.6099C6.67741 25.923 6.48486 26.1938 6.23096 26.4224C5.97705 26.6466 5.67025 26.8201 5.31055 26.9429C4.95508 27.0656 4.55729 27.127 4.11719 27.127C3.68978 27.127 3.28564 27.0677 2.90479 26.9492C2.52393 26.8265 2.1875 26.6424 1.89551 26.397C1.60775 26.1473 1.38135 25.832 1.21631 25.4512C1.05127 25.0661 0.96875 24.6112 0.96875 24.0864H2.82861C2.82861 24.3657 2.85612 24.6048 2.91113 24.8037C2.96615 24.9984 3.05078 25.1549 3.16504 25.2734C3.2793 25.3877 3.41895 25.4744 3.58398 25.5337C3.75326 25.5887 3.9458 25.6162 4.16162 25.6162C4.40706 25.6162 4.60173 25.5697 4.74561 25.4766C4.89372 25.3835 4.99951 25.2586 5.06299 25.1021C5.12646 24.9455 5.1582 24.7677 5.1582 24.5688ZM13.2616 25.6479C13.4267 25.6479 13.5684 25.6141 13.6869 25.5464C13.8096 25.4787 13.9027 25.3687 13.9662 25.2163C14.0297 25.064 14.0635 24.8672 14.0678 24.626H15.7372C15.7372 25.1423 15.6272 25.5887 15.4071 25.9653C15.1913 26.3377 14.8993 26.6255 14.5312 26.8286C14.1672 27.0275 13.7546 27.127 13.2934 27.127C12.8321 27.127 12.4301 27.0529 12.0873 26.9048C11.7445 26.7567 11.461 26.5409 11.2367 26.2573C11.0167 25.9738 10.8495 25.6289 10.7353 25.2227C10.6252 24.8122 10.5702 24.3424 10.5702 23.8135V23.312C10.5702 22.7915 10.6252 22.326 10.7353 21.9155C10.8495 21.505 11.0167 21.158 11.2367 20.8745C11.461 20.591 11.7424 20.3752 12.081 20.2271C12.4237 20.0789 12.8257 20.0049 13.287 20.0049C13.7821 20.0049 14.2117 20.1086 14.5756 20.3159C14.9395 20.519 15.223 20.8195 15.4262 21.2173C15.6335 21.6151 15.7372 22.106 15.7372 22.6899H14.0678C14.0635 22.4276 14.0318 22.2096 13.9726 22.0361C13.9175 21.8584 13.8308 21.723 13.7123 21.6299C13.598 21.5326 13.4457 21.4839 13.2553 21.4839C13.0564 21.4839 12.8956 21.5262 12.7729 21.6108C12.6544 21.6912 12.5634 21.8097 12.4999 21.9663C12.4407 22.1187 12.4005 22.3091 12.3793 22.5376C12.3581 22.7661 12.3476 23.0243 12.3476 23.312V23.8135C12.3476 24.1224 12.356 24.3911 12.3729 24.6196C12.3941 24.8439 12.4343 25.0343 12.4936 25.1909C12.557 25.3433 12.648 25.4575 12.7665 25.5337C12.8892 25.6099 13.0543 25.6479 13.2616 25.6479ZM21.1365 21.6616V27H19.3592V20.1318H21.035L21.1365 21.6616ZM22.7552 20.0811L22.7298 21.8521C22.6494 21.8351 22.5521 21.8224 22.4378 21.814C22.3278 21.8055 22.2304 21.8013 22.1458 21.8013C21.9469 21.8013 21.7776 21.833 21.638 21.8965C21.4983 21.9557 21.382 22.0467 21.2889 22.1694C21.2 22.2879 21.1323 22.436 21.0857 22.6138C21.0392 22.7915 21.0117 22.9925 21.0032 23.2168L20.6668 23.0898C20.6668 22.6413 20.7007 22.2308 20.7684 21.8584C20.8403 21.4818 20.9461 21.1559 21.0857 20.8809C21.2254 20.6016 21.3925 20.3857 21.5872 20.2334C21.7861 20.0811 22.0104 20.0049 22.2601 20.0049C22.3447 20.0049 22.4336 20.0133 22.5267 20.0303C22.624 20.043 22.7002 20.0599 22.7552 20.0811ZM28.1291 20.1318V27H26.3454V20.1318H28.1291ZM26.2629 18.3545C26.2629 18.0794 26.3496 17.853 26.5231 17.6753C26.7009 17.4933 26.94 17.4023 27.2404 17.4023C27.5367 17.4023 27.7715 17.4912 27.945 17.6689C28.1185 17.8467 28.2053 18.0731 28.2053 18.3481C28.2053 18.6232 28.1185 18.8517 27.945 19.0337C27.7715 19.2114 27.5367 19.3003 27.2404 19.3003C26.94 19.3003 26.7009 19.2114 26.5231 19.0337C26.3496 18.8517 26.2629 18.6253 26.2629 18.3545ZM33.9156 21.4521V29.6406H32.1446V20.1318H33.7823L33.9156 21.4521ZM37.483 23.3311V23.7881C37.483 24.3255 37.4365 24.8016 37.3434 25.2163C37.2503 25.6268 37.1106 25.9759 36.9244 26.2637C36.7424 26.5472 36.5139 26.763 36.2389 26.9111C35.9638 27.055 35.6422 27.127 35.274 27.127C34.9312 27.127 34.635 27.0465 34.3854 26.8857C34.1399 26.7207 33.9326 26.4943 33.7633 26.2065C33.594 25.9188 33.4586 25.5824 33.357 25.1973C33.2555 24.8122 33.1772 24.3996 33.1222 23.9595V23.2485C33.1729 22.7788 33.247 22.3472 33.3443 21.9536C33.4417 21.5558 33.575 21.2109 33.7442 20.9189C33.9177 20.627 34.1272 20.4027 34.3727 20.2461C34.6223 20.0853 34.9186 20.0049 35.2613 20.0049C35.6337 20.0049 35.9575 20.0726 36.2325 20.208C36.5118 20.3434 36.7424 20.5487 36.9244 20.8237C37.1106 21.0946 37.2503 21.4395 37.3434 21.8584C37.4365 22.2773 37.483 22.7682 37.483 23.3311ZM35.6993 23.7881V23.3311C35.6993 23.001 35.6824 22.7196 35.6485 22.4868C35.6147 22.2541 35.5597 22.0636 35.4835 21.9155C35.4073 21.7674 35.3079 21.6595 35.1852 21.5918C35.0624 21.5241 34.9122 21.4902 34.7345 21.4902C34.561 21.4902 34.4086 21.5241 34.2774 21.5918C34.1505 21.6595 34.0468 21.759 33.9664 21.8901C33.886 22.0171 33.8246 22.1737 33.7823 22.3599C33.74 22.5418 33.7167 22.7492 33.7125 22.9819V24.2261C33.721 24.5011 33.7569 24.7445 33.8204 24.9561C33.8881 25.1676 33.996 25.3369 34.1441 25.4639C34.2923 25.5866 34.4933 25.6479 34.7472 25.6479C34.9291 25.6479 35.0794 25.6099 35.1979 25.5337C35.3206 25.4575 35.42 25.3433 35.4962 25.1909C35.5724 25.0386 35.6253 24.846 35.6549 24.6133C35.6845 24.3805 35.6993 24.1055 35.6993 23.7881ZM44.1709 20.1318V21.4712H40.667V20.1318H44.1709ZM41.4731 18.437H43.2441V24.9053C43.2441 25.0957 43.2632 25.2417 43.3013 25.3433C43.3394 25.4448 43.3965 25.5168 43.4727 25.5591C43.5531 25.5972 43.6567 25.6162 43.7837 25.6162C43.8768 25.6162 43.9614 25.612 44.0376 25.6035C44.1138 25.5908 44.1709 25.5781 44.209 25.5654V26.9556C44.0693 27.0106 43.9212 27.0529 43.7646 27.0825C43.6123 27.1121 43.4303 27.127 43.2188 27.127C42.8675 27.127 42.5607 27.0592 42.2983 26.9238C42.036 26.7884 41.8328 26.5726 41.689 26.2764C41.5451 25.9759 41.4731 25.5824 41.4731 25.0957V18.437Z"/>
<path d="M36.0729 61.5H8.58203V34.5H36.0729V61.5ZM17.8984 55.848L15.8091 57.114C16.1347 57.8159 16.6624 58.4088 17.3272 58.8195C18.0493 59.226 18.8699 59.4333 19.7021 59.4195C20.1386 59.4165 20.5735 59.3662 20.9988 59.2695C21.8886 59.0545 22.6429 58.4773 23.0728 57.6825C23.5012 56.6925 23.6591 55.6098 23.531 54.5415C23.531 54.3375 23.531 54.129 23.531 53.919C23.5386 52.3785 23.531 50.811 23.531 49.293C23.531 48.519 23.531 47.7435 23.531 46.9665V46.9035H20.9529C20.9529 47.9925 20.9529 49.079 20.9529 50.163C20.9529 51.2535 20.9529 52.3425 20.9529 53.4345C20.9529 53.7135 20.9529 53.9865 20.9529 54.249C21.0296 54.9977 20.9743 55.7538 20.7895 56.484C20.5677 56.9045 20.1111 57.1538 19.6303 57.117C19.415 57.1164 19.2009 57.0846 18.995 57.0225C18.5813 56.8101 18.2479 56.4731 18.0435 56.061L17.9931 55.977C17.9457 55.8975 17.9137 55.842 17.8984 55.842V55.848ZM26.9841 55.548L24.8872 56.7285C25.0589 57.0974 25.2957 57.4336 25.5867 57.7215C25.6585 57.7995 25.7394 57.8835 25.8142 57.9765C26.8396 58.8772 28.1797 59.3539 29.5545 59.307C31.3337 59.4792 33.0145 58.4758 33.6782 56.8455V56.8335C33.852 56.2343 33.8797 55.6032 33.7591 54.9915L33.8111 55.065C33.585 53.6715 32.5572 52.704 30.3716 51.8325C30.2021 51.7545 30.0265 51.6825 29.8554 51.6075C29.1758 51.3195 28.5343 51.0495 28.3113 50.5575C28.212 50.3044 28.1939 50.0275 28.2594 49.764C28.4175 49.2362 28.9361 48.8939 29.4935 48.9495C29.6636 48.9495 29.8329 48.9738 29.9959 49.0215C30.4985 49.1878 30.9052 49.5566 31.1139 50.0355C32.2975 49.275 32.2975 49.275 33.1238 48.7695C32.9347 48.4526 32.7098 48.1577 32.4533 47.8905C31.6693 47.0651 30.5444 46.6364 29.3988 46.7265H29.2155L28.4091 46.827C27.6518 46.9939 26.9666 47.3894 26.4496 47.958C25.8418 48.7045 25.5682 49.661 25.6911 50.6091C25.814 51.5572 26.3229 52.4159 27.1017 52.989C27.7707 53.4386 28.4921 53.8078 29.2506 54.0885C30.2296 54.4935 31.0742 54.8385 31.2452 55.47C31.3487 55.8357 31.2725 56.228 31.039 56.5305C30.6245 56.9326 30.051 57.1355 29.4705 57.0855C29.3107 57.085 29.1511 57.075 28.9925 57.0555C28.1288 56.8654 27.3935 56.3127 26.9811 55.5435L26.9841 55.548Z"/>
</svg>
