<svg width="36" height="50" viewBox="0 0 36 50" xmlns="http://www.w3.org/2000/svg">
<path d="M9.75781 8.1582H11.4629C11.4395 8.79883 11.3105 9.33984 11.0762 9.78125C10.8418 10.2188 10.5078 10.5508 10.0742 10.7773C9.64453 11.0039 9.125 11.1172 8.51562 11.1172C8.04297 11.1172 7.62305 11.0391 7.25586 10.8828C6.88867 10.7227 6.57617 10.4883 6.31836 10.1797C6.06055 9.87109 5.86523 9.49023 5.73242 9.03711C5.60352 8.58008 5.53906 8.05469 5.53906 7.46094V6.01367C5.53906 5.41992 5.60742 4.89453 5.74414 4.4375C5.88477 3.98047 6.08398 3.59766 6.3418 3.28906C6.60352 2.97656 6.91797 2.74219 7.28516 2.58594C7.65625 2.42578 8.07422 2.3457 8.53906 2.3457C9.16016 2.3457 9.67969 2.46289 10.0977 2.69727C10.5156 2.93164 10.8379 3.27344 11.0645 3.72266C11.2949 4.16797 11.4336 4.71289 11.4805 5.35742H9.76367C9.75586 4.95117 9.71094 4.63281 9.62891 4.40234C9.55078 4.16797 9.42578 4.00391 9.25391 3.91016C9.08203 3.8125 8.84375 3.76367 8.53906 3.76367C8.3125 3.76367 8.11719 3.80469 7.95312 3.88672C7.78906 3.96484 7.6543 4.0918 7.54883 4.26758C7.44336 4.44336 7.36523 4.67383 7.31445 4.95898C7.26758 5.24414 7.24414 5.5918 7.24414 6.00195V7.46094C7.24414 7.86328 7.26562 8.20703 7.30859 8.49219C7.35156 8.77344 7.41992 9.00391 7.51367 9.18359C7.60742 9.36328 7.73438 9.49414 7.89453 9.57617C8.05859 9.6582 8.26562 9.69922 8.51562 9.69922C8.80469 9.69922 9.03711 9.65625 9.21289 9.57031C9.39258 9.48438 9.52539 9.33008 9.61133 9.10742C9.69727 8.88477 9.74609 8.56836 9.75781 8.1582ZM18.5445 8.75586C18.5445 8.60352 18.5309 8.46484 18.5035 8.33984C18.4762 8.21484 18.4176 8.09961 18.3277 7.99414C18.2418 7.88867 18.1148 7.7832 17.9469 7.67773C17.7828 7.57227 17.568 7.46289 17.3023 7.34961C16.9859 7.2168 16.6793 7.07617 16.3824 6.92773C16.0855 6.77539 15.818 6.59961 15.5797 6.40039C15.3414 6.20117 15.152 5.9668 15.0113 5.69727C14.8746 5.42383 14.8062 5.10352 14.8062 4.73633C14.8062 4.37695 14.8707 4.05078 14.9996 3.75781C15.1324 3.46484 15.3199 3.21484 15.5621 3.00781C15.8043 2.79688 16.0875 2.63477 16.4117 2.52148C16.7398 2.4082 17.1051 2.35156 17.5074 2.35156C18.0543 2.35156 18.527 2.46484 18.9254 2.69141C19.3277 2.91797 19.6383 3.22852 19.857 3.62305C20.0797 4.01758 20.191 4.4707 20.191 4.98242H18.4801C18.4801 4.74023 18.4449 4.52734 18.3746 4.34375C18.3082 4.15625 18.2008 4.00977 18.0523 3.9043C17.9039 3.79883 17.7125 3.74609 17.4781 3.74609C17.2594 3.74609 17.0777 3.79102 16.9332 3.88086C16.7926 3.9668 16.6871 4.08594 16.6168 4.23828C16.5504 4.38672 16.5172 4.55469 16.5172 4.74219C16.5172 4.88281 16.5504 5.00977 16.6168 5.12305C16.6871 5.23242 16.7828 5.33203 16.9039 5.42188C17.025 5.50781 17.1676 5.5918 17.3316 5.67383C17.4996 5.75586 17.6832 5.83594 17.8824 5.91406C18.2691 6.06641 18.6109 6.23438 18.9078 6.41797C19.2047 6.59766 19.4527 6.80078 19.652 7.02734C19.8512 7.25 20.0016 7.50195 20.1031 7.7832C20.2047 8.06445 20.2555 8.38477 20.2555 8.74414C20.2555 9.09961 20.193 9.42383 20.068 9.7168C19.9469 10.0059 19.7691 10.2559 19.5348 10.4668C19.3004 10.6738 19.0172 10.834 18.6852 10.9473C18.357 11.0605 17.9898 11.1172 17.5836 11.1172C17.1891 11.1172 16.816 11.0625 16.4645 10.9531C16.1129 10.8398 15.8023 10.6699 15.5328 10.4434C15.2672 10.2129 15.0582 9.92188 14.9059 9.57031C14.7535 9.21484 14.6773 8.79492 14.6773 8.31055H16.3941C16.3941 8.56836 16.4195 8.78906 16.4703 8.97266C16.5211 9.15234 16.5992 9.29688 16.7047 9.40625C16.8102 9.51172 16.9391 9.5918 17.0914 9.64648C17.2477 9.69727 17.4254 9.72266 17.6246 9.72266C17.8512 9.72266 18.0309 9.67969 18.1637 9.59375C18.3004 9.50781 18.398 9.39258 18.4566 9.24805C18.5152 9.10352 18.5445 8.93945 18.5445 8.75586ZM27.425 8.75586C27.425 8.60352 27.4113 8.46484 27.384 8.33984C27.3566 8.21484 27.298 8.09961 27.2082 7.99414C27.1223 7.88867 26.9953 7.7832 26.8273 7.67773C26.6633 7.57227 26.4484 7.46289 26.1828 7.34961C25.8664 7.2168 25.5598 7.07617 25.2629 6.92773C24.966 6.77539 24.6984 6.59961 24.4602 6.40039C24.2219 6.20117 24.0324 5.9668 23.8918 5.69727C23.7551 5.42383 23.6867 5.10352 23.6867 4.73633C23.6867 4.37695 23.7512 4.05078 23.8801 3.75781C24.0129 3.46484 24.2004 3.21484 24.4426 3.00781C24.6848 2.79688 24.968 2.63477 25.2922 2.52148C25.6203 2.4082 25.9855 2.35156 26.3879 2.35156C26.9348 2.35156 27.4074 2.46484 27.8059 2.69141C28.2082 2.91797 28.5187 3.22852 28.7375 3.62305C28.9602 4.01758 29.0715 4.4707 29.0715 4.98242H27.3605C27.3605 4.74023 27.3254 4.52734 27.2551 4.34375C27.1887 4.15625 27.0812 4.00977 26.9328 3.9043C26.7844 3.79883 26.593 3.74609 26.3586 3.74609C26.1398 3.74609 25.9582 3.79102 25.8137 3.88086C25.673 3.9668 25.5676 4.08594 25.4973 4.23828C25.4309 4.38672 25.3977 4.55469 25.3977 4.74219C25.3977 4.88281 25.4309 5.00977 25.4973 5.12305C25.5676 5.23242 25.6633 5.33203 25.7844 5.42188C25.9055 5.50781 26.048 5.5918 26.2121 5.67383C26.3801 5.75586 26.5637 5.83594 26.7629 5.91406C27.1496 6.06641 27.4914 6.23438 27.7883 6.41797C28.0852 6.59766 28.3332 6.80078 28.5324 7.02734C28.7316 7.25 28.882 7.50195 28.9836 7.7832C29.0852 8.06445 29.1359 8.38477 29.1359 8.74414C29.1359 9.09961 29.0734 9.42383 28.9484 9.7168C28.8273 10.0059 28.6496 10.2559 28.4152 10.4668C28.1809 10.6738 27.8977 10.834 27.5656 10.9473C27.2375 11.0605 26.8703 11.1172 26.4641 11.1172C26.0695 11.1172 25.6965 11.0625 25.3449 10.9531C24.9934 10.8398 24.6828 10.6699 24.4133 10.4434C24.1477 10.2129 23.9387 9.92188 23.7863 9.57031C23.634 9.21484 23.5578 8.79492 23.5578 8.31055H25.2746C25.2746 8.56836 25.3 8.78906 25.3508 8.97266C25.4016 9.15234 25.4797 9.29688 25.5852 9.40625C25.6906 9.51172 25.8195 9.5918 25.9719 9.64648C26.1281 9.69727 26.3059 9.72266 26.5051 9.72266C26.7316 9.72266 26.9113 9.67969 27.0441 9.59375C27.1809 9.50781 27.2785 9.39258 27.3371 9.24805C27.3957 9.10352 27.425 8.93945 27.425 8.75586Z"/>
<path d="M17.9746 45.4835L8.42109 42.764L6.28809 18.7145H29.7106L27.5806 42.7655L17.9806 45.4835H17.9746ZM11.5831 34.028L11.9071 38.3285L18.0016 40.2245L23.9881 38.5145L25.3456 23.63H10.6456L10.8826 26.5535H22.1761L21.8971 29.5895H14.4901L14.7571 32.4575H21.6571L21.2491 36.3875L18.0031 37.2875L14.7031 36.3875L14.4931 34.0325H11.5831V34.028Z"/>
</svg>
