<?xml version="1.0" standalone="no"?>
<!DOCTYPE svg PUBLIC "-//W3C//DTD SVG 20010904//EN"
 "http://www.w3.org/TR/2001/REC-SVG-20010904/DTD/svg10.dtd">
<svg version="1.0" xmlns="http://www.w3.org/2000/svg"
 width="1044.000000pt" height="1280.000000pt" viewBox="0 0 1044.000000 1280.000000"
 preserveAspectRatio="xMidYMid meet">
<metadata>
Created by potrace 1.15, written by Peter Selinger 2001-2017
</metadata>
<g transform="translate(0.000000,1280.000000) scale(0.100000,-0.100000)"
 stroke="none">
<path d="M6738 12789 c-123 -18 -298 -62 -391 -100 -242 -96 -469 -267 -620
-468 -131 -174 -198 -331 -236 -557 -11 -64 -28 -128 -37 -141 -18 -29 -24
-29 -214 1 -319 51 -810 42 -1140 -20 -383 -72 -692 -173 -1030 -335 -178 -86
-259 -132 -468 -266 -106 -68 -174 -106 -194 -107 -29 -1 -31 2 -67 99 -98
257 -158 326 -377 431 -188 90 -394 131 -599 121 -287 -16 -564 -107 -788
-259 -105 -72 -270 -231 -344 -332 -140 -191 -233 -456 -233 -666 0 -175 64
-400 151 -529 69 -103 156 -201 213 -240 93 -63 311 -124 546 -151 58 -7 184
-13 281 -12 97 0 182 -4 189 -8 12 -7 11 -38 -3 -187 -10 -98 -17 -248 -17
-333 0 -214 37 -486 76 -562 15 -29 18 -30 61 -25 86 9 102 -30 128 -316 16
-178 26 -204 96 -253 23 -15 94 -91 159 -169 388 -462 815 -735 1417 -905 159
-45 203 -63 203 -83 0 -14 -21 -29 -210 -143 -429 -258 -1060 -739 -1397
-1064 -295 -285 -487 -617 -523 -905 -25 -198 19 -368 143 -555 156 -235 356
-400 567 -468 155 -50 263 -52 440 -7 240 61 388 141 623 337 65 54 126 98
137 98 28 0 39 -28 60 -148 38 -222 118 -479 213 -686 l49 -108 -28 -28 c-16
-15 -107 -64 -203 -108 -212 -99 -354 -177 -465 -257 -315 -225 -521 -486
-621 -788 -85 -257 -72 -492 45 -791 130 -333 452 -619 821 -730 304 -91 653
-85 916 15 367 141 723 488 941 916 140 277 207 539 218 863 6 176 8 186 38
205 13 9 97 26 196 41 464 67 1024 216 1542 410 108 41 208 74 221 74 20 0 34
-19 92 -128 94 -176 138 -242 242 -363 218 -253 459 -433 758 -566 250 -112
503 -168 755 -167 126 0 159 3 255 28 231 59 400 135 552 250 284 214 478 518
544 851 18 90 18 338 0 430 -51 265 -144 447 -316 620 -202 202 -467 322 -870
392 -130 22 -433 22 -644 -1 -85 -9 -182 -16 -217 -16 l-63 0 -5 43 c-3 23 -7
92 -10 152 -13 255 -92 571 -222 886 -24 60 -44 117 -44 128 0 31 37 35 168
16 175 -25 444 -30 569 -11 205 31 405 106 525 196 144 108 275 340 313 555
30 170 17 429 -28 577 -60 196 -245 377 -523 516 -132 66 -237 102 -427 146
-188 44 -314 60 -622 81 -536 35 -1030 38 -1387 9 -95 -8 -113 -3 -97 28 6 13
89 102 183 198 192 195 284 312 403 511 234 390 348 726 383 1127 l9 113 -79
100 c-132 166 -135 186 -26 176 64 -6 67 -5 78 18 8 19 7 39 -5 89 -25 104
-32 110 -180 175 -81 36 -71 69 31 107 26 9 50 20 54 24 13 10 -42 171 -99
285 -29 61 -96 173 -147 250 -91 136 -116 177 -116 190 0 7 21 15 179 72 362
128 541 291 647 588 62 174 88 439 60 605 -19 109 -105 440 -137 527 -51 135
-273 287 -514 351 -174 47 -365 62 -507 41z"/>
</g>
</svg>
