<svg width="26" height="26" viewBox="0 0 26 26" xmlns="http://www.w3.org/2000/svg">
<path clip-rule="evenodd" d="M0 13.0271C0 19.8182 5.19648 25.3956 11.8301 26H14.2243C20.4634 25.4316 25.4313 20.4639 26 14.2248V11.8295C25.3954 5.19616 19.8181 0 13.0272 0C5.83246 0 0 5.83245 0 13.0271ZM20.7046 8.21985C21.2746 8.21985 21.4033 8.51404 21.2746 8.91855C21.0737 9.84561 19.4056 12.3048 18.889 13.0665C18.7908 13.2112 18.7342 13.2946 18.7372 13.2946C18.5349 13.6256 18.4614 13.7727 18.7372 14.1404C18.8369 14.2764 19.0483 14.4839 19.2899 14.7209C19.5384 14.9648 19.8189 15.24 20.0426 15.5011C20.8517 16.4204 21.4768 17.1927 21.6423 17.7259C21.7894 18.2591 21.532 18.5349 20.9804 18.5349H19.0865C18.5846 18.5349 18.3259 18.2467 17.7746 17.6324C17.5382 17.369 17.2479 17.0457 16.8617 16.6594C15.7401 15.5746 15.2436 15.4275 14.9678 15.4275C14.5817 15.4275 14.4714 15.5195 14.4714 16.0711V17.781C14.4714 18.2407 14.3243 18.5165 13.1107 18.5165C11.1066 18.5165 8.88175 17.303 7.31885 15.0414C4.96532 11.7317 4.32178 9.23112 4.32178 8.73468C4.32178 8.45887 4.41371 8.20146 4.96532 8.20146H6.87757C7.35563 8.20146 7.5395 8.40372 7.72337 8.93694C8.6611 11.6398 10.224 14.0117 10.8675 14.0117C11.1066 14.0117 11.2169 13.9014 11.2169 13.2946V10.4998C11.1715 9.70543 10.895 9.35931 10.6899 9.10265C10.5627 8.94347 10.463 8.8187 10.463 8.64274C10.463 8.4221 10.6469 8.20146 10.9411 8.20146H13.9198C14.3243 8.20146 14.4714 8.4221 14.4714 8.90016V12.6695C14.4714 13.074 14.6369 13.2211 14.7656 13.2211C15.0046 13.2211 15.2069 13.074 15.6481 12.6327C17.0088 11.1066 17.9833 8.75307 17.9833 8.75307C18.112 8.47726 18.3326 8.21985 18.8107 8.21985H20.7046Z"/>
</svg>
